HIERARCHY
ROOT Hips
{
	OFFSET -0.001795 -0.223333 0.028219
	CHANNELS 6 Xposition Yposition Zposition Zrotation Yrotation Xrotation 
	JOINT LeftUpLeg
	{
		OFFSET 0.069520 -0.091406 -0.006815
		CHANNELS 3 Zrotation Yrotation Xrotation
		JOINT LeftLeg
		{
			OFFSET 0.034277 -0.375199 -0.004496
			CHANNELS 3 Zrotation Yrotation Xrotation
			JOINT LeftFoot
			{
				OFFSET -0.013596 -0.397961 -0.043693
				CHANNELS 3 Zrotation Yrotation Xrotation
				JOINT LeftToe
				{
					OFFSET 0.026358 -0.055791 0.119288
					CHANNELS 3 Zrotation Yrotation Xrotation
					End Site
					{
						OFFSET 0.000000 0.000000 0.000000
					}
				}
			}
		}
	}
	JOINT RightUpLeg
	{
		OFFSET -0.067670 -0.090522 -0.004320
		CHANNELS 3 Zrotation Yrotation Xrotation
		JOINT RightLeg
		{
			OFFSET -0.038290 -0.382569 -0.008850
			CHANNELS 3 Zrotation Yrotation Xrotation
			JOINT RightFoot
			{
				OFFSET 0.015774 -0.398415 -0.042312
				CHANNELS 3 Zrotation Yrotation Xrotation
				JOINT RightToe
				{
					OFFSET -0.025372 -0.048144 0.123348
					CHANNELS 3 Zrotation Yrotation Xrotation
					End Site
					{
						OFFSET 0.000000 0.000000 0.000000
					}
				}
			}
		}
	}
	JOINT Spine
	{
		OFFSET -0.002533 0.108963 -0.026696
		CHANNELS 3 Zrotation Yrotation Xrotation
		JOINT Spine1
		{
			OFFSET 0.005487 0.135180 0.001092
			CHANNELS 3 Zrotation Yrotation Xrotation
			JOINT Spine2
			{
				OFFSET 0.001457 0.052922 0.025425
				CHANNELS 3 Zrotation Yrotation Xrotation
				JOINT Neck
				{
					OFFSET -0.002778 0.213870 -0.042857
					CHANNELS 3 Zrotation Yrotation Xrotation
					JOINT Head
					{
						OFFSET 0.005152 0.064970 0.051349
						CHANNELS 3 Zrotation Yrotation Xrotation
						End Site
						{
							OFFSET 0.000000 0.000000 0.000000
						}
					}
				}
				JOINT LeftShoulder
				{
					OFFSET 0.078845 0.121749 -0.034090
					CHANNELS 3 Zrotation Yrotation Xrotation
					JOINT LeftArm
					{
						OFFSET 0.090977 0.030469 -0.008868
						CHANNELS 3 Zrotation Yrotation Xrotation
						JOINT LeftForeArm
						{
							OFFSET 0.259612 -0.012772 -0.027456
							CHANNELS 3 Zrotation Yrotation Xrotation
							JOINT LeftHand
							{
								OFFSET 0.249234 0.008986 -0.001171
								CHANNELS 3 Zrotation Yrotation Xrotation
								End Site
								{
									OFFSET 0.000000 0.000000 0.000000
								}
							}
						}
					}
				}
				JOINT RightShoulder
				{
					OFFSET -0.081759 0.118833 -0.038615
					CHANNELS 3 Zrotation Yrotation Xrotation
					JOINT RightArm
					{
						OFFSET -0.096012 0.032551 -0.009143
						CHANNELS 3 Zrotation Yrotation Xrotation
						JOINT RightForeArm
						{
							OFFSET -0.253742 -0.013329 -0.021401
							CHANNELS 3 Zrotation Yrotation Xrotation
							JOINT RightHand
							{
								OFFSET -0.255298 0.007772 -0.005559
								CHANNELS 3 Zrotation Yrotation Xrotation
								End Site
								{
									OFFSET 0.000000 0.000000 0.000000
								}
							}
						}
					}
				}
			}
		}
	}
}
MOTION
Frames: 7
Frame Time: 0.050000
0.289307 0.921977 1.127753 -4.049350 -14.611196 -6.194011 13.357073 0.818198 -4.993039 -13.384624 3.497118 12.588138 7.382185 15.498475 4.172278 0.000000 0.000000 0.000000 0.281694 0.278085 -2.896037 5.103946 -0.130609 13.798891 -17.197022 -25.437628 69.117534 0.000000 0.000000 0.000000 -4.029024 1.132231 31.790037 7.918903 -1.641218 -23.802123 1.356475 -1.769288 20.284442 -6.730400 4.030420 -32.622166 0.000000 0.000000 0.000000 -23.226757 -9.369857 6.669659 -40.544014 -39.029290 6.257612 -27.147479 -77.413309 29.027903 0.000000 0.000000 0.000000 8.509717 21.746847 7.260757 44.093807 28.861316 4.519055 22.638506 80.328309 19.678192 0.000000 0.000000 0.000000 
0.280375 0.920510 1.109378 -3.364610 -13.715845 -6.454679 13.301426 0.857274 -7.265866 -13.005043 3.571899 14.492313 6.998111 14.743153 5.512197 0.000000 0.000000 0.000000 0.375453 0.383480 -3.918462 5.322342 -0.191757 14.023752 -18.619967 -26.207302 69.581963 0.000000 0.000000 0.000000 -2.562666 0.704524 32.748078 6.927380 -1.348654 -24.232255 1.690711 -1.660897 21.157361 -7.162877 4.345042 -32.365515 0.000000 0.000000 0.000000 -22.813958 -10.394050 7.070751 -40.894332 -40.031701 6.724445 -23.405333 -77.828846 26.012380 0.000000 0.000000 0.000000 8.478097 21.326334 7.176720 43.809740 30.934595 5.129671 20.284651 77.998302 17.242225 0.000000 0.000000 0.000000 
0.272688 0.919949 1.092730 -2.706281 -12.704868 -6.427097 13.151684 0.880550 -9.670072 -12.700506 3.620822 16.177802 6.518163 13.911512 7.172141 0.000000 0.000000 0.000000 0.099473 0.496557 -5.037083 5.953261 -0.347232 13.984485 -19.572493 -26.692355 70.186795 0.000000 0.000000 0.000000 -1.117278 0.233671 33.391970 6.634979 -1.323472 -23.655979 1.484372 -0.623423 20.627880 -7.181087 4.607342 -31.764306 0.000000 0.000000 0.000000 -22.778155 -11.699206 7.313299 -40.916547 -40.399434 7.008406 -28.351408 -77.877227 29.607349 0.000000 0.000000 0.000000 8.763768 21.667331 7.557386 44.046505 32.229639 5.741830 11.524768 74.928571 10.208722 0.000000 0.000000 0.000000 
0.266804 0.921336 1.078942 -1.714423 -12.636762 -5.837888 12.672815 0.884761 -12.009586 -12.667148 3.739823 17.129849 6.408119 13.779474 9.564464 0.000000 0.000000 0.000000 -0.397420 0.625429 -6.408884 5.981321 -0.365015 13.345425 -19.941996 -26.943187 70.244255 0.000000 0.000000 0.000000 -0.409152 0.017619 32.804906 6.490429 -1.356040 -22.915504 1.844535 0.612429 19.862401 -9.135121 5.806986 -31.031687 0.000000 0.000000 0.000000 -22.553671 -11.218876 6.637351 -42.731300 -39.475640 7.257603 -41.646682 -77.714501 40.594208 0.000000 0.000000 0.000000 8.512438 21.362829 7.587886 43.775685 32.373224 5.834487 10.847615 71.911231 9.516724 0.000000 0.000000 0.000000 
0.262808 0.924149 1.068194 -0.558998 -11.868216 -5.358180 12.125357 0.767047 -12.641162 -13.359034 3.680313 15.364701 5.970926 13.207108 11.688429 0.000000 0.000000 0.000000 -0.923903 0.712027 -7.434770 5.354959 -0.286233 12.652555 -19.978123 -26.932638 70.675250 0.000000 0.000000 0.000000 0.481184 -0.314926 31.858841 5.726313 -1.135407 -23.054308 2.294844 0.626480 20.371082 -10.031246 6.344930 -30.415370 0.000000 0.000000 0.000000 -23.244594 -11.762789 6.990658 -43.259021 -38.539617 6.951953 -55.392835 -77.537759 52.532294 0.000000 0.000000 0.000000 8.452714 21.332510 7.630948 44.045892 31.648278 5.574258 6.234858 69.748618 6.108943 0.000000 0.000000 0.000000 
0.260975 0.927423 1.060052 0.774445 -10.731939 -5.159001 10.690074 0.464254 -12.027497 -11.577832 2.648067 11.258119 6.813763 14.623873 12.446422 0.000000 0.000000 0.000000 -2.062934 0.681297 -7.557872 5.053112 -0.295978 11.190561 -20.083878 -26.926032 71.159526 0.000000 0.000000 0.000000 1.085798 -0.573462 30.831183 5.573649 -1.002954 -23.818932 2.220000 0.270717 21.118318 -10.726363 6.741505 -30.277553 0.000000 0.000000 0.000000 -23.084211 -11.208071 6.664473 -45.073246 -38.442910 7.305877 -65.979223 -76.248813 61.231383 0.000000 0.000000 0.000000 9.160459 20.827159 7.523592 43.677480 31.118690 5.240770 7.369633 67.549727 6.686693 0.000000 0.000000 0.000000 
0.260950 0.930090 1.053306 1.899292 -9.814273 -5.158313 9.069039 0.183689 -10.800200 -9.705409 2.255482 12.720771 10.576829 20.235724 16.964719 0.000000 0.000000 0.000000 -3.395764 0.628584 -7.507033 5.247224 -0.372211 10.036929 -19.937795 -26.787912 71.547877 0.000000 0.000000 0.000000 2.001306 -0.871290 30.426812 5.299744 -0.900810 -23.959238 1.691963 -0.435707 21.240435 -11.286627 7.050616 -29.523209 0.000000 0.000000 0.000000 -23.142452 -11.178147 6.734691 -44.722447 -38.666875 7.297867 -72.277312 -76.035147 66.912277 0.000000 0.000000 0.000000 8.879030 21.438840 7.719061 44.314823 30.759007 5.207368 4.767596 65.341360 4.726802 0.000000 0.000000 0.000000 
